<svg width="28" height="28" viewBox="0 0 28 28" fill="none" xmlns="http://www.w3.org/2000/svg">
<g clip-path="url(#clip0_14_16)">
<path d="M9.33333 14C9.33333 15.2377 9.82499 16.4247 10.7002 17.2998C11.5753 18.175 12.7623 18.6667 14 18.6667C15.2377 18.6667 16.4247 18.175 17.2998 17.2998C18.175 16.4247 18.6667 15.2377 18.6667 14C18.6667 12.7623 18.175 11.5753 17.2998 10.7002C16.4247 9.825 15.2377 9.33333 14 9.33333C12.7623 9.33333 11.5753 9.825 10.7002 10.7002C9.82499 11.5753 9.33333 12.7623 9.33333 14Z" stroke="#63636A"  stroke-width="2.75" stroke-linecap="round" stroke-linejoin="round"/>
<path d="M18.6667 14V15.75C18.6667 16.5235 18.974 17.2654 19.5209 17.8124C20.0679 18.3594 20.8098 18.6667 21.5833 18.6667C22.3569 18.6667 23.0987 18.3594 23.6457 17.8124C24.1927 17.2654 24.5 16.5235 24.5 15.75V14C24.5029 11.7438 23.779 9.54665 22.4355 7.73406C21.092 5.92147 19.2003 4.58985 17.0408 3.93645C14.8813 3.28305 12.5687 3.34264 10.4457 4.10639C8.32266 4.87014 6.50212 6.29741 5.25374 8.17679C4.00536 10.0562 3.39555 12.2877 3.51464 14.5407C3.63374 16.7938 4.4754 18.9486 5.91495 20.6859C7.35449 22.4232 9.31536 23.6506 11.5071 24.1863C13.6988 24.722 16.0047 24.5374 18.0833 23.66" stroke="#63636A"  stroke-width="2.75" stroke-linecap="round" stroke-linejoin="round"/>
</g>
<defs>
<clipPath id="clip0_14_16">
<rect width="28" height="28" fill="white"/>
</clipPath>
</defs>
</svg>
