<svg width="28" height="28" viewBox="0 0 28 28" fill="none" xmlns="http://www.w3.org/2000/svg">
<path fill-rule="evenodd" clip-rule="evenodd" d="M2.66329 10.819C5.47516 6.93312 9.56221 4.63164 14.0001 4.63164C18.4382 4.63164 22.5254 6.93334 25.3373 10.8196C25.9925 11.7226 26.291 12.8825 26.291 13.9942C26.291 15.106 25.9924 16.2661 25.337 17.1693C22.5251 21.0552 18.438 23.3567 14.0001 23.3567C9.56199 23.3567 5.47475 21.055 2.66287 17.1687C2.00772 16.2657 1.70927 15.1058 1.70927 13.9942C1.70927 12.8822 2.00784 11.7221 2.66329 10.819Z" fill="#63636A"/>
<path d="M17.5001 14C17.5001 15.9357 15.9358 17.5 14.0001 17.5C12.0644 17.5 10.5001 15.9357 10.5001 14C10.5001 12.0643 12.0644 10.5 14.0001 10.5C15.9358 10.5 17.5001 12.0643 17.5001 14Z" fill="white" />
<path fill-rule="evenodd" clip-rule="evenodd" d="M14.0001 11.375C12.5476 11.375 11.3751 12.5475 11.3751 14C11.3751 15.4525 12.5476 16.625 14.0001 16.625C15.4526 16.625 16.6251 15.4525 16.6251 14C16.6251 12.5475 15.4526 11.375 14.0001 11.375ZM9.62514 14C9.62514 11.581 11.5811 9.625 14.0001 9.625C16.4192 9.625 18.3751 11.581 18.3751 14C18.3751 16.419 16.4192 18.375 14.0001 18.375C11.5811 18.375 9.62514 16.419 9.62514 14Z" fill="white" />
</svg>
