<svg width="28" height="28" viewBox="0 0 28 28" fill="none" xmlns="http://www.w3.org/2000/svg">
<path opacity="0.1" d="M9.91667 11.6667C13.4605 11.6667 16.3333 14.5395 16.3333 18.0833C16.3333 21.6272 13.4605 24.5 9.91667 24.5C6.37284 24.5 3.5 21.6272 3.5 18.0833C3.5 14.5395 6.37284 11.6667 9.91667 11.6667Z" fill="#63636A" />
<path d="M14.5833 13.4167L24.5 3.5" stroke="#63636A"  stroke-width="2" stroke-linecap="round" stroke-linejoin="round"/>
<path d="M9.91667 11.6667C13.4605 11.6667 16.3333 14.5395 16.3333 18.0833C16.3333 21.6272 13.4605 24.5 9.91667 24.5C6.37284 24.5 3.5 21.6272 3.5 18.0833C3.5 14.5395 6.37284 11.6667 9.91667 11.6667Z" stroke="#63636A" stroke-width="2"/>
<path d="M18.0833 9.91667L19.8333 11.6667C20.4777 12.311 21.5223 12.311 22.1667 11.6667L23.3333 10.5C23.9777 9.85568 23.9777 8.811 23.3333 8.16667L21.5833 6.41667" stroke="#63636A" stroke-width="2" stroke-linecap="round" stroke-linejoin="round"/>
</svg>
